# xmcd
#
# Track frame offsets:
#	150
#	20002
#	38175
#	54715
#	73152
#	89110
#	108525
#	128205
#	144335
#	162252
#	182170
#	206140
#	232405
#	253440
#	270740
#	287982
#	308302
#
# Disc length: 4333
#
# Revision: 2
# Processed by: cddbd v1.5.1PL0 Copyright (c) Steve Scherf et al.
# Submitted via: EasyCDDAExtractor 5.0.6
# Normalized: r1:DSETVAR1
#
DISCID=1310eb11
DTITLE=Various Artist - Pure Gold
DYEAR=1900
DGENRE=Easy Listening
TTITLE0=michael ruff - MORE THAN YOU'LL EVER KNOW
TTITLE1=randy vanwarmer - JUST WHEN I NEEDED YOU MOST
TTITLE2=dan hill - NEVER THOUGHT THAT I COULD LOVE
TTITLE3=rupert holmes - TOUCH AND GO
TTITLE4=kalapana - THE HURT
TTITLE5=clair marlo - TI'L THEY TAKE MY HEART AWAY
TTITLE6=stephen bishop - SEPARATE LIVES
TTITLE7=todd rundgren - CAN WE STILL BE FRIENDS
TTITLE8=workshy - IT'S TOO LATE
TTITLE9=gino vannelli - I JUST WANNA STOP
TTITLE10=pauline wilson - FOLLOW YOUR ROAD
TTITLE11=10cc - I'M NOT IN LOVE
TTITLE12=earth, wind and fire - AFTER THE LOVE HAS GONE
TTITLE13=the james taylor quartet - LOVE BALLAD
TTITLE14=nicole wills - FALLIN'
TTITLE15=livingston taylor - NO EASY WAY TO BREAK SOMEBODY'S HEART
TTITLE16=paul young - UNTIL YOU COME BACK TO ME
EXTD=
EXTT0=
EXTT1=
EXTT2=
EXTT3=
EXTT4=
EXTT5=
EXTT6=
EXTT7=
EXTT8=
EXTT9=
EXTT10=
EXTT11=
EXTT12=
EXTT13=
EXTT14=
EXTT15=
EXTT16=
PLAYORDER=
